<svg width="488" height="339" viewBox="0 0 488 339" fill="none" xmlns="http://www.w3.org/2000/svg">
<g clip-path="url(#clip0_33_93)">
<g opacity="0.47">
<path opacity="0.72" d="M27.6357 57.5053L14.9644 70.1766L26.7872 81.9994L39.4585 69.3281L27.6357 57.5053Z" fill="#DDDDDD"/>
<path opacity="0.72" d="M41.6318 72.5124L28.9604 85.1837L40.7833 97.0065L53.4546 84.3352L41.6318 72.5124Z" fill="#DDDDDD"/>
<path opacity="0.72" d="M44.6298 42.5079L31.9585 55.1792L43.7813 67.002L56.4526 54.3307L44.6298 42.5079Z" fill="#DDDDDD"/>
<path opacity="0.72" d="M444.638 258.51L431.966 271.182L443.789 283.004L456.46 270.333L444.638 258.51Z" fill="#DDDDDD"/>
<path opacity="0.72" d="M458.634 273.507L445.962 286.179L457.785 298.002L470.457 285.33L458.634 273.507Z" fill="#DDDDDD"/>
<path opacity="0.72" d="M443.634 288.511L430.962 301.182L442.785 313.005L455.457 300.333L443.634 288.511Z" fill="#DDDDDD"/>
<path opacity="0.72" d="M246.79 0H124.79V63H246.79V0Z" fill="#BBBBBB"/>
<path opacity="0.72" d="M97.79 236H51.79V338H97.79V236Z" fill="#DDDDDD"/>
<path opacity="0.72" d="M73.79 245C73.79 245 33.79 180 31.79 163C29.79 146 27.79 140 27.79 140C27.79 140 39.79 138 43.79 147C47.79 156 59.79 145 63.79 169C63.79 169 64.79 181 73.79 177C82.79 173 73.79 245 73.79 245Z" fill="#DDDDDD"/>
<path opacity="0.72" d="M78.79 255C78.79 255 50.23 202 40.79 181C33.79 165.42 27.79 140 27.79 140C27.79 140 15.73 144.42 16.79 154C17.79 163 8.79003 166 10.79 177C12.95 188.9 30.15 191.13 19.79 202C13.5 208.59 18.22 219.84 22.79 227C25.72 231.58 40.17 235.75 36.79 234C29.05 230 78.79 255 78.79 255Z" fill="#BBBBBB"/>
<path opacity="0.72" d="M60.6724 210.557C61.6758 210.095 57.6212 199.146 51.6163 186.103C45.6115 173.059 39.9302 162.86 38.9268 163.322C37.9235 163.784 41.978 174.732 47.9829 187.776C53.9878 200.819 59.6691 211.019 60.6724 210.557Z" fill="#BBBBBB"/>
<path opacity="0.72" d="M87.3801 287.49C87.3801 287.49 26.4801 241.49 18.4401 226.38C10.4001 211.27 6.3501 206.38 6.3501 206.38C6.3501 206.38 16.8001 200.15 23.8001 207.08C30.8001 214.01 37.9801 199.4 50.4301 220.3C50.4301 220.3 51.8001 234.97 60.8001 231.97C70.1301 228.89 87.3801 287.49 87.3801 287.49Z" fill="#DDDDDD"/>
<path opacity="0.72" d="M95.6701 295C95.6701 295 49.7901 256 33.3601 239.87C21.1701 227.87 6.3601 206.4 6.3601 206.4C6.3601 206.4 -3.26993 214.91 1.20007 223.4C5.40006 231.4 -1.88991 237.49 3.98009 247.01C10.3201 257.31 27.1601 253.13 21.4601 267.01C18.0001 275.44 26.4601 284.2 33.3501 289.21C37.7401 292.41 52.7201 291.04 48.9401 290.64C40.2401 289.79 95.6701 295 95.6701 295Z" fill="#F0F0F0"/>
<path opacity="0.72" d="M56.6004 272.29C57.3672 271.494 49.6096 262.769 39.2733 252.802C28.9371 242.834 19.9363 235.398 19.1696 236.193C18.4028 236.989 26.1604 245.713 36.4967 255.681C46.8329 265.649 55.8337 273.085 56.6004 272.29Z" fill="#DDDDDD"/>
<path opacity="0.72" d="M404.79 165.09C404.79 165.09 452.33 87.79 455.38 67.2C458.43 46.61 460.95 39.39 460.95 39.39C460.95 39.39 447.75 36.39 442.87 47.19C437.99 57.99 425.24 44.04 419.62 73.06C419.62 73.06 417.92 87.62 408.14 82.35C398.36 77.08 404.79 165.09 404.79 165.09Z" fill="#DDDDDD"/>
<path opacity="0.72" d="M398.79 177C398.79 177 433.06 113.79 444.55 88.66C453.08 70.01 460.98 39.35 460.98 39.35C460.98 39.35 474.13 45.28 472.48 56.88C470.93 67.79 480.75 71.88 477.99 85.14C474.99 99.52 455.83 101.46 466.78 115.14C473.42 123.45 467.64 136.92 462.22 145.43C458.75 150.87 442.53 155.29 446.36 153.32C455.11 148.85 398.79 177 398.79 177Z" fill="#BBBBBB"/>
<path opacity="0.72" d="M432.28 94.49C424.98 110.09 419.95 123.23 421.04 123.84C422.13 124.45 428.93 112.29 436.23 96.69C443.53 81.09 448.56 67.95 447.47 67.34C446.38 66.73 439.57 78.88 432.28 94.49Z" fill="#BBBBBB"/>
<path opacity="0.72" d="M387.63 216.18C387.63 216.18 457.39 162.94 467.05 144.92C476.71 126.9 481.43 121.16 481.43 121.16C481.43 121.16 470.16 113.16 462.06 121.23C453.96 129.3 446.73 111.23 431.9 136.12C431.9 136.12 429.66 153.91 419.83 149.85C409.64 145.64 387.63 216.18 387.63 216.18Z" fill="#F0F0F0"/>
<path opacity="0.72" d="M378.07 224.93C378.07 224.93 430.84 179.55 449.84 160.67C463.94 146.67 481.43 121.16 481.43 121.16C481.43 121.16 491.68 131.95 486.3 142.16C481.24 151.73 489.03 159.44 482.06 170.76C474.52 183 456.06 177.17 461.71 194.33C465.13 204.74 455.29 215.03 447.44 220.81C442.44 224.51 425.89 222.16 430.1 221.81C439.79 221.1 378.07 224.93 378.07 224.93Z" fill="#DDDDDD"/>
<path opacity="0.72" d="M448.17 172.16C436.73 184.32 428.17 194.97 429.01 195.94C429.85 196.91 439.82 187.83 451.26 175.66C462.7 163.49 471.26 152.85 470.42 151.88C469.58 150.91 459.61 160 448.17 172.16Z" fill="white"/>
<path opacity="0.72" d="M182.79 236H105.79V338H182.79V236Z" fill="#BBBBBB"/>
<path d="M350.79 237H273.79V339H350.79V237Z" fill="#DDDDDD"/>
<path opacity="0.72" d="M303.79 0H253.79V64H303.79V0Z" fill="#DDDDDD"/>
<path opacity="0.72" d="M419.79 53H70.79V310H419.79V53Z" fill="#BBBBBB"/>
<path opacity="0.72" d="M419.79 53H79.79V310H419.79V53Z" fill="#F0F0F0"/>
<path d="M415.79 57H82.79V75H415.79V57Z" fill="white"/>
<path opacity="0.72" d="M415.79 74H82.79V306H415.79V74Z" fill="#DDDDDD"/>
</g>
<path opacity="0.34" d="M178.79 83H137.79V129H178.79V83Z" fill="#BBBBBB"/>
<path opacity="0.34" d="M224.79 83H183.79V129H224.79V83Z" fill="#BBBBBB"/>
<path opacity="0.34" d="M269.79 83H228.79V129H269.79V83Z" fill="#BBBBBB"/>
<path opacity="0.4" d="M315.79 83H274.79V129H315.79V83Z" fill="#DDDDDD"/>
<path opacity="0.4" d="M360.79 83H319.79V129H360.79V83Z" fill="#DDDDDD"/>
<path opacity="0.4" d="M406.79 83H365.79V129H406.79V83Z" fill="#DDDDDD"/>
<path opacity="0.4" d="M178.79 136H137.79V182H178.79V136Z" fill="#DDDDDD"/>
<path opacity="0.4" d="M224.79 136H183.79V182H224.79V136Z" fill="#DDDDDD"/>
<path opacity="0.4" d="M269.79 136H228.79V182H269.79V136Z" fill="#DDDDDD"/>
<path opacity="0.4" d="M315.79 136H274.79V182H315.79V136Z" fill="#DDDDDD"/>
<path opacity="0.4" d="M360.79 136H319.79V182H360.79V136Z" fill="#DDDDDD"/>
<path opacity="0.4" d="M406.79 136H365.79V182H406.79V136Z" fill="#DDDDDD"/>
<path opacity="0.4" d="M178.79 187H137.79V233H178.79V187Z" fill="#DDDDDD"/>
<path opacity="0.4" d="M224.79 187H183.79V233H224.79V187Z" fill="#DDDDDD"/>
<path opacity="0.4" d="M269.79 187H228.79V233H269.79V187Z" fill="#DDDDDD"/>
<path opacity="0.4" d="M315.79 187H274.79V233H315.79V187Z" fill="#DDDDDD"/>
<path opacity="0.4" d="M360.79 187H319.79V233H360.79V187Z" fill="#DDDDDD"/>
<path opacity="0.4" d="M406.79 187H365.79V233H406.79V187Z" fill="#DDDDDD"/>
<path opacity="0.4" d="M179.79 239H138.79V285H179.79V239Z" fill="#DDDDDD"/>
<path opacity="0.4" d="M225.79 239H184.79V285H225.79V239Z" fill="#DDDDDD"/>
<path opacity="0.4" d="M270.79 239H229.79V285H270.79V239Z" fill="#DDDDDD"/>
<path opacity="0.4" d="M316.79 239H275.79V285H316.79V239Z" fill="#DDDDDD"/>
<path opacity="0.4" d="M361.79 239H320.79V285H361.79V239Z" fill="#BBBBBB"/>
<path opacity="0.4" d="M407.79 239H366.79V285H407.79V239Z" fill="#DDDDDD"/>
<path d="M382.5 70C384.433 70 386 68.433 386 66.5C386 64.567 384.433 63 382.5 63C380.567 63 379 64.567 379 66.5C379 68.433 380.567 70 382.5 70Z" fill="#BAC5F4"/>
<path d="M393.5 70C395.433 70 397 68.433 397 66.5C397 64.567 395.433 63 393.5 63C391.567 63 390 64.567 390 66.5C390 68.433 391.567 70 393.5 70Z" fill="#BAC5F4"/>
<path d="M404.5 70C406.433 70 408 70 408 66.5C408 63 406.433 63 404.5 63C402.567 63 401 63 401 66.5C401 70 402.567 70 404.5 70Z" fill="#BBBBBB"/>
<path d="M393.5 70C395.433 70 397 70 397 66.5C397 63 395.433 63 393.5 63C391.567 63 390 63 390 66.5C390 70 391.567 70 393.5 70Z" fill="#BBBBBB"/>
<path d="M382.5 70C384.433 70 386 70 386 66.5C386 63 384.433 63 382.5 63C380.567 63 379 63 379 66.5C379 70 380.567 70 382.5 70Z" fill="#BBBBBB"/>
<path opacity="0.5" d="M125.29 135H97.29C94.8048 135 92.79 137.015 92.79 139.5C92.79 141.985 94.8048 144 97.29 144H125.29C127.775 144 129.79 141.985 129.79 139.5C129.79 137.015 127.775 135 125.29 135Z" fill="white"/>
<path opacity="0.5" d="M125.29 187H97.29C94.8048 187 92.79 189.015 92.79 191.5C92.79 193.985 94.8048 196 97.29 196H125.29C127.775 196 129.79 193.985 129.79 191.5C129.79 189.015 127.775 187 125.29 187Z" fill="white"/>
<path opacity="0.5" d="M125.29 239H97.29C94.8048 239 92.79 241.015 92.79 243.5C92.79 245.985 94.8048 248 97.29 248H125.29C127.775 248 129.79 245.985 129.79 243.5C129.79 241.015 127.775 239 125.29 239Z" fill="white"/>
<path d="M161.29 139H145.29C143.357 139 141.79 140.567 141.79 142.5C141.79 144.433 143.357 146 145.29 146H161.29C163.223 146 164.79 144.433 164.79 142.5C164.79 140.567 163.223 139 161.29 139Z" fill="#BBBBBB"/>
<path d="M151.29 152H144.29C142.909 152 141.79 153.119 141.79 154.5C141.79 155.881 142.909 157 144.29 157H151.29C152.671 157 153.79 155.881 153.79 154.5C153.79 153.119 152.671 152 151.29 152Z" fill="#DDDDDD"/>
<path d="M207.79 139H191.79C190.133 139 188.79 140.343 188.79 142C188.79 143.657 190.133 145 191.79 145H207.79C209.447 145 210.79 143.657 210.79 142C210.79 140.343 209.447 139 207.79 139Z" fill="#BBBBBB"/>
<path d="M343.79 246H327.79C326.133 246 324.79 247.343 324.79 249C324.79 250.657 326.133 252 327.79 252H343.79C345.447 252 346.79 250.657 346.79 249C346.79 247.343 345.447 246 343.79 246Z" fill="white"/>
<path d="M388.79 192H372.79C371.133 192 369.79 193.343 369.79 195C369.79 196.657 371.133 198 372.79 198H388.79C390.447 198 391.79 196.657 391.79 195C391.79 193.343 390.447 192 388.79 192Z" fill="#DDDDDD"/>
<path d="M387.79 140H371.79C370.133 140 368.79 141.343 368.79 143C368.79 144.657 370.133 146 371.79 146H387.79C389.447 146 390.79 144.657 390.79 143C390.79 141.343 389.447 140 387.79 140Z" fill="#F0F0F0"/>
<path d="M342.79 140H326.79C325.133 140 323.79 141.343 323.79 143C323.79 144.657 325.133 146 326.79 146H342.79C344.447 146 345.79 144.657 345.79 143C345.79 141.343 344.447 140 342.79 140Z" fill="#F0F0F0"/>
<path d="M192.79 157C194.999 157 196.79 155.209 196.79 153C196.79 150.791 194.999 149 192.79 149C190.581 149 188.79 150.791 188.79 153C188.79 155.209 190.581 157 192.79 157Z" fill="#DDDDDD"/>
<path d="M283.79 150C285.999 150 287.79 148.209 287.79 146C287.79 143.791 285.999 142 283.79 142C281.581 142 279.79 143.791 279.79 146C279.79 148.209 281.581 150 283.79 150Z" fill="#BBBBBB"/>
<path d="M297.79 150C299.999 150 301.79 148.209 301.79 146C301.79 143.791 299.999 142 297.79 142C295.581 142 293.79 143.791 293.79 146C293.79 148.209 295.581 150 297.79 150Z" fill="#BBBBBB"/>
<path d="M297.79 200C299.999 200 301.79 198.209 301.79 196C301.79 193.791 299.999 192 297.79 192C295.581 192 293.79 193.791 293.79 196C293.79 198.209 295.581 200 297.79 200Z" fill="#DDDDDD"/>
<path d="M283.79 200C285.999 200 287.79 198.209 287.79 196C287.79 193.791 285.999 192 283.79 192C281.581 192 279.79 193.791 279.79 196C279.79 198.209 281.581 200 283.79 200Z" fill="#DDDDDD"/>
<path d="M296.79 251C298.999 251 300.79 249.209 300.79 247C300.79 244.791 298.999 243 296.79 243C294.581 243 292.79 244.791 292.79 247C292.79 249.209 294.581 251 296.79 251Z" fill="#BBBBBB"/>
<path d="M282.79 251C284.999 251 286.79 249.209 286.79 247C286.79 244.791 284.999 243 282.79 243C280.581 243 278.79 244.791 278.79 247C278.79 249.209 280.581 251 282.79 251Z" fill="#BBBBBB"/>
<path d="M160.79 252C162.999 252 164.79 250.209 164.79 248C164.79 245.791 162.999 244 160.79 244C158.581 244 156.79 245.791 156.79 248C156.79 250.209 158.581 252 160.79 252Z" fill="#BBBBBB"/>
<path d="M146.79 252C148.999 252 150.79 250.209 150.79 248C150.79 245.791 148.999 244 146.79 244C144.581 244 142.79 245.791 142.79 248C142.79 250.209 144.581 252 146.79 252Z" fill="#BBBBBB"/>
<path d="M283.79 96C285.999 96 287.79 94.2091 287.79 92C287.79 89.7909 285.999 88 283.79 88C281.581 88 279.79 89.7909 279.79 92C279.79 94.2091 281.581 96 283.79 96Z" fill="#BBBBBB"/>
<path d="M236.79 96C238.999 96 240.79 94.2091 240.79 92C240.79 89.7909 238.999 88 236.79 88C234.581 88 232.79 89.7909 232.79 92C232.79 94.2091 234.581 96 236.79 96Z" fill="white"/>
<path d="M250.79 96C252.999 96 254.79 94.2091 254.79 92C254.79 89.7909 252.999 88 250.79 88C248.581 88 246.79 89.7909 246.79 92C246.79 94.2091 248.581 96 250.79 96Z" fill="white"/>
<path d="M191.79 96C193.999 96 195.79 94.2091 195.79 92C195.79 89.7909 193.999 88 191.79 88C189.581 88 187.79 89.7909 187.79 92C187.79 94.2091 189.581 96 191.79 96Z" fill="white"/>
<path d="M205.79 96C207.999 96 209.79 94.2091 209.79 92C209.79 89.7909 207.999 88 205.79 88C203.581 88 201.79 89.7909 201.79 92C201.79 94.2091 203.581 96 205.79 96Z" fill="white"/>
<path d="M146.79 96C148.999 96 150.79 94.2091 150.79 92C150.79 89.7909 148.999 88 146.79 88C144.581 88 142.79 89.7909 142.79 92C142.79 94.2091 144.581 96 146.79 96Z" fill="white"/>
<path d="M160.79 96C162.999 96 164.79 94.2091 164.79 92C164.79 89.7909 162.999 88 160.79 88C158.581 88 156.79 89.7909 156.79 92C156.79 94.2091 158.581 96 160.79 96Z" fill="white"/>
</g>
<defs>
<clipPath id="clip0_33_93">
<rect width="487.87" height="339" fill="white"/>
</clipPath>
</defs>
</svg>
