<svg width="379" height="344" viewBox="0 0 379 344" fill="none" xmlns="http://www.w3.org/2000/svg">
<g opacity="0.6" clip-path="url(#clip0_33_183)">
<mask id="mask0_33_183" style="mask-type:luminance" maskUnits="userSpaceOnUse" x="0" y="0" width="379" height="344">
<path d="M379 0H0V344H379V0Z" fill="white"/>
</mask>
<g mask="url(#mask0_33_183)">
<path d="M109.785 74.15C109.785 68.9663 114.037 64.7639 119.281 64.7639H260.774C266.018 64.7639 270.27 68.9663 270.27 74.15V275.951C270.27 281.134 266.018 285.337 260.774 285.337H119.281C114.037 285.337 109.785 281.134 109.785 275.951V74.15Z" fill="#DDDDDD" fill-opacity="0.2"/>
<path fill-rule="evenodd" clip-rule="evenodd" d="M82.528 3.97597C82.528 1.78014 84.329 0 86.5506 0H99.7301C101.952 0 103.753 1.78014 103.753 3.97597C103.753 5.77484 104.982 7.33009 106.699 7.92747C111.509 9.60134 115.907 12.1411 119.7 15.3571C121.083 16.5296 123.063 16.8039 124.641 15.9035C126.568 14.8035 129.033 15.4562 130.146 17.3614L136.731 28.6347C137.842 30.5375 137.183 32.9705 135.258 34.0691C133.682 34.9681 132.934 36.7965 133.267 38.5641C133.72 40.9717 133.958 43.4545 133.958 45.9919C133.958 48.5293 133.72 51.0121 133.267 53.4197C132.934 55.1872 133.682 57.0157 135.258 57.9146C137.183 59.0132 137.842 61.4463 136.731 63.349L130.146 74.6224C129.033 76.5275 126.568 77.1802 124.641 76.0804C123.063 75.1798 121.083 75.4541 119.7 76.6267C115.907 79.8427 111.509 82.3824 106.699 84.0563C104.982 84.6537 103.753 86.2089 103.753 88.0078C103.753 90.2036 101.952 91.9837 99.7301 91.9837H86.5506C84.329 91.9837 82.528 90.2036 82.528 88.0078C82.528 86.2089 81.2984 84.6537 79.5818 84.0563C74.7714 82.3824 70.3738 79.8427 66.5802 76.6267C65.1973 75.4541 63.2174 75.1798 61.6395 76.0804C59.712 77.1802 57.2475 76.5275 56.1346 74.6224L49.5496 63.349C48.4383 61.4463 49.0978 59.0132 51.0229 57.9146C52.5982 57.0157 53.3468 55.1872 53.014 53.4197C52.5608 51.0121 52.3238 48.5293 52.3238 45.9919C52.3238 43.4545 52.5608 40.9717 53.014 38.5641C53.3468 36.7965 52.5982 34.9682 51.0229 34.0691C49.0978 32.9707 48.4383 30.5376 49.5496 28.6347L56.1346 17.3614C57.2475 15.4563 59.712 14.8035 61.6395 15.9035C63.2174 16.8039 65.1973 16.5296 66.5802 15.3571C70.3736 12.1411 74.7713 9.60134 79.5818 7.92747C81.2984 7.33009 82.528 5.77484 82.528 3.97597ZM116.432 45.9918C116.432 58.9514 106.016 69.4572 93.1667 69.4572C80.3176 69.4572 69.9013 58.9514 69.9013 45.9918C69.9013 33.0324 80.3176 22.5266 93.1667 22.5266C106.016 22.5266 116.432 33.0324 116.432 45.9918Z" fill="#BBBBBB"/>
<path fill-rule="evenodd" clip-rule="evenodd" d="M184.609 22.0079C185.262 20.9367 186.671 20.5918 187.755 21.2376L194.184 25.0687C195.268 25.7145 195.617 27.1065 194.964 28.1777C194.429 29.0552 194.566 30.1714 195.225 30.9618C197.075 33.1767 198.464 35.6941 199.357 38.3657C199.683 39.3398 200.568 40.0491 201.605 40.0685C202.873 40.0923 203.881 41.1271 203.857 42.38L203.715 49.7937C203.691 51.0451 202.646 52.0404 201.38 52.0167C200.343 51.9973 199.435 52.6716 199.071 53.6307C198.575 54.937 197.953 56.217 197.197 57.455C196.442 58.6928 195.588 59.8351 194.65 60.8779C193.962 61.6435 193.784 62.7531 194.284 63.6495C194.897 64.7451 194.495 66.1238 193.386 66.7289L186.819 70.3144C185.71 70.9203 184.312 70.5223 183.7 69.4255C183.198 68.5274 182.151 68.0858 181.128 68.2557C178.319 68.722 175.419 68.6825 172.574 68.1009C171.559 67.8932 170.495 68.2945 169.961 69.172C169.308 70.2432 167.899 70.5881 166.815 69.9423L160.386 66.1112C159.302 65.4654 158.954 64.0734 159.607 63.0022C160.141 62.1247 160.005 61.0085 159.345 60.2181C157.496 58.0032 156.106 55.4858 155.213 52.8142C154.887 51.8401 154.003 51.1308 152.965 51.1114C151.697 51.0876 150.689 50.0528 150.713 48.7999L150.856 41.3862C150.88 40.1348 151.924 39.1395 153.19 39.1632C154.227 39.1826 155.136 38.5083 155.5 37.5492C155.995 36.2429 156.618 34.9629 157.373 33.7249C158.129 32.4871 158.983 31.3448 159.92 30.302C160.609 29.5365 160.787 28.4269 160.286 27.5304C159.674 26.4349 160.075 25.0562 161.185 24.451L167.751 20.8656C168.861 20.2596 170.258 20.6577 170.871 21.7546C171.372 22.6525 172.419 23.0943 173.443 22.9242C176.251 22.4579 179.152 22.4974 181.997 23.0792C183.011 23.2867 184.075 22.8854 184.609 22.0079ZM188.546 52.2999C184.796 58.4469 176.716 60.426 170.497 56.7203C164.277 53.0145 162.275 45.0271 166.024 38.88C169.774 32.733 177.854 30.7539 184.074 34.4596C190.293 38.1655 192.295 46.1528 188.546 52.2999Z" fill="#BBBBBB"/>
<path fill-rule="evenodd" clip-rule="evenodd" d="M240.05 27.0934C240.626 26.7945 241.338 27.0136 241.64 27.5832L243.435 30.9613C243.737 31.5308 243.516 32.2348 242.94 32.5339C242.468 32.7787 242.228 33.3057 242.305 33.827C242.521 35.288 242.452 36.7611 242.125 38.1714C242.006 38.6856 242.204 39.2304 242.655 39.5122C243.205 39.8565 243.371 40.5771 243.022 41.1218L240.96 44.3448C240.613 44.8887 239.885 45.051 239.335 44.7072C238.884 44.4258 238.302 44.4829 237.884 44.8089C237.314 45.253 236.695 45.6518 236.03 45.9973C235.364 46.3428 234.68 46.6202 233.987 46.8318C233.478 46.9873 233.1 47.4281 233.079 47.9543C233.052 48.5973 232.504 49.0977 231.853 49.072L227.999 48.9193C227.347 48.8934 226.84 48.3506 226.867 47.7068C226.888 47.1797 226.546 46.7096 226.051 46.5148C224.69 45.9803 223.425 45.199 222.33 44.1939C221.94 43.8352 221.365 43.7318 220.892 43.9768C220.316 44.2759 219.604 44.0566 219.302 43.4872L217.507 40.109C217.205 39.5394 217.426 38.8354 218.002 38.5365C218.474 38.2915 218.714 37.7645 218.637 37.2432C218.423 35.7822 218.49 34.3091 218.817 32.8989C218.936 32.3847 218.738 31.8399 218.287 31.558C217.737 31.2138 217.572 30.4931 217.92 29.9485L219.982 26.7254C220.329 26.1815 221.058 26.0192 221.607 26.3631C222.058 26.6444 222.64 26.5873 223.058 26.2613C223.628 25.8173 224.247 25.4184 224.912 25.0729C225.578 24.7274 226.263 24.4501 226.955 24.2384C227.464 24.083 227.842 23.6422 227.863 23.116C227.89 22.4729 228.438 21.9725 229.089 21.9983L232.943 22.151C233.595 22.1768 234.102 22.7196 234.075 23.3635C234.054 23.8905 234.396 24.3607 234.891 24.5556C236.252 25.0899 237.518 25.8713 238.612 26.8764C239.002 27.235 239.577 27.3384 240.05 27.0934ZM233.614 41.4518C230.308 43.1676 226.221 41.9096 224.485 38.642C222.75 35.3743 224.022 31.3344 227.328 29.6185C230.634 27.9027 234.721 29.1607 236.457 32.4282C238.192 35.6959 236.92 39.7358 233.614 41.4518Z" fill="#BBBBBB"/>
<path fill-rule="evenodd" clip-rule="evenodd" d="M69.2248 216.897C69.7541 216.029 70.8949 215.75 71.7729 216.273L76.9813 219.376C77.8593 219.9 78.142 221.027 77.6127 221.895C77.1791 222.606 77.2901 223.51 77.8245 224.15C79.3221 225.945 80.448 227.984 81.1719 230.148C81.4358 230.937 82.1521 231.511 82.9928 231.528C84.0197 231.546 84.8363 232.385 84.8168 233.401L84.7019 239.406C84.6825 240.419 83.8353 241.226 82.8098 241.206C81.9705 241.191 81.234 241.737 80.9394 242.514C80.5383 243.572 80.0335 244.609 79.4219 245.612C78.8103 246.614 78.1181 247.54 77.3587 248.385C76.8011 249.006 76.6563 249.903 77.0621 250.63C77.5581 251.518 77.2324 252.634 76.3344 253.125L71.0148 256.029C70.1158 256.52 68.9845 256.198 68.488 255.309C68.0814 254.582 67.2329 254.224 66.4037 254.361C64.1294 254.74 61.7793 254.707 59.4747 254.236C58.6523 254.068 57.7915 254.392 57.3579 255.104C56.8287 255.972 55.6879 256.25 54.8099 255.727L49.6014 252.624C48.7235 252.101 48.4408 250.973 48.9701 250.106C49.4037 249.395 49.2925 248.491 48.7581 247.85C47.2606 246.056 46.1348 244.017 45.4108 241.853C45.1469 241.064 44.4306 240.489 43.59 240.473C42.5631 240.454 41.7465 239.615 41.766 238.6L41.8808 232.595C41.9003 231.581 42.7474 230.775 43.773 230.795C44.6123 230.81 45.3488 230.264 45.6433 229.487C46.0445 228.428 46.5492 227.392 47.1609 226.389C47.7725 225.386 48.4645 224.461 49.2241 223.616C49.7816 222.995 49.9265 222.097 49.5206 221.371C49.0246 220.483 49.3504 219.366 50.2482 218.876L55.5679 215.971C56.4669 215.481 57.5982 215.803 58.0948 216.692C58.5013 217.419 59.3499 217.777 60.179 217.64C62.4534 217.261 64.8035 217.294 67.1081 217.764C67.9304 217.933 68.7912 217.608 69.2248 216.897ZM72.4135 241.436C69.3764 246.416 62.83 248.019 57.7921 245.017C52.7541 242.015 51.1321 235.545 54.1692 230.565C57.2064 225.585 63.7526 223.982 68.7907 226.984C73.8287 229.985 75.4507 236.456 72.4135 241.436Z" fill="#BBBBBB"/>
<path d="M101.238 66.6412C101.238 61.4575 105.49 57.2551 110.735 57.2551H252.227C257.471 57.2551 261.723 61.4575 261.723 66.6412V268.443C261.723 273.626 257.471 277.828 252.227 277.828H110.735C105.49 277.828 101.238 273.626 101.238 268.443V66.6412Z" fill="white" fill-opacity="0.36"/>
<path fill-rule="evenodd" clip-rule="evenodd" d="M100.289 66.6413C100.289 60.939 104.966 56.3166 110.735 56.3166H252.227C257.996 56.3166 262.672 60.9391 262.672 66.6413V268.443C262.672 274.144 257.996 278.767 252.227 278.767H110.735C104.966 278.767 100.289 274.144 100.289 268.443V66.6413ZM110.735 58.1937C106.015 58.1937 102.188 61.9758 102.188 66.6413V268.443C102.188 273.108 106.015 276.89 110.735 276.89H252.227C256.947 276.89 260.774 273.108 260.774 268.443V66.6413C260.774 61.9758 256.947 58.1937 252.227 58.1937H110.735Z" fill="#BBBBBB" fill-opacity="0.5"/>
<path d="M135.424 57.2551H228.486L224.863 67.281C224.189 69.1488 222.399 70.3956 220.392 70.3956H143.519C141.512 70.3956 139.722 69.1488 139.048 67.281L135.424 57.2551Z" fill="#BBBBBB"/>
<path fill-rule="evenodd" clip-rule="evenodd" d="M201.897 89.6372H232.286V119.673H201.897V89.6372ZM206.646 94.3303V114.979H227.537V94.3303H206.646Z" fill="#DDDDDD"/>
<path d="M129.727 89.168H177.208V247.793H129.727V89.168Z" fill="#BBBBBB"/>
<path fill-rule="evenodd" clip-rule="evenodd" d="M201.897 153.463H232.286V183.498H201.897V153.463ZM206.646 158.155V178.805H227.537V158.155H206.646Z" fill="#DDDDDD"/>
<path fill-rule="evenodd" clip-rule="evenodd" d="M201.897 217.287H232.286V247.324H201.897V217.287ZM206.646 221.981V242.631H227.537V221.981H206.646Z" fill="#DDDDDD"/>
<path fill-rule="evenodd" clip-rule="evenodd" d="M298.22 52.6508C298.888 49.6114 301.922 47.6827 304.996 48.3427L360.792 60.3208C363.867 60.9809 365.818 63.98 365.15 67.0195L347.759 146.162C347.092 149.201 344.057 151.13 340.983 150.47L285.187 138.492C282.112 137.832 280.161 134.832 280.829 131.793L298.22 52.6508ZM304.593 50.1772C302.544 49.7371 300.52 51.0229 300.076 53.0492L282.685 132.193C282.24 134.218 283.54 136.217 285.59 136.658L341.386 148.635C343.436 149.076 345.459 147.79 345.903 145.763L363.294 66.621C363.74 64.5947 362.439 62.5953 360.389 62.1552L304.593 50.1772Z" fill="#BBBBBB"/>
<path d="M33.1097 100.431L92.6915 122.134L60.575 208.274L0.993164 186.571L33.1097 100.431Z" fill="#BBBBBB"/>
<path d="M39.6594 112.144L79.6617 126.721L72.7167 145.34L32.7144 130.763L39.6594 112.144Z" fill="white"/>
<path d="M53.5486 146.401L69.9493 152.378L63.2201 170.419L46.8193 164.443L53.5486 146.401Z" fill="white"/>
<path d="M44.2381 171.374L60.6388 177.35L53.9095 195.392L37.5088 189.415L44.2381 171.374Z" fill="white"/>
<path d="M30.114 138.275L45.6625 143.942L38.9332 161.983L23.3848 156.316L30.114 138.275Z" fill="white"/>
<path d="M20.8035 163.248L36.352 168.914L29.6227 186.955L14.0742 181.289L20.8035 163.248Z" fill="white"/>
<path d="M263.623 205.556H284.514V247.793H263.623V205.556Z" fill="#BBBBBB"/>
<path d="M294.959 178.336H315.851V247.793H294.959V178.336Z" fill="#BBBBBB"/>
<path d="M328.197 191.476H349.087V247.793H328.197V191.476Z" fill="#BBBBBB"/>
<path d="M192.401 57.7244C192.401 63.6858 187.511 68.5185 181.48 68.5185C175.449 68.5185 170.56 63.6858 170.56 57.7244C170.56 51.7631 175.449 46.9304 181.48 46.9304C187.511 46.9304 192.401 51.7631 192.401 57.7244Z" fill="#BBBBBB"/>
<path d="M61.3544 247.324L36.4182 322.13C35.0424 326.257 35.1579 330.729 36.745 334.781L39.988 343.062H90.3175L81.3723 328.654C78.8806 324.64 78.0027 319.855 78.9275 315.236C82.2667 298.558 87.5496 272.67 89.8427 263.279C93.1664 249.67 97.4396 251.078 103.137 239.346C108.835 227.613 110.259 227.143 107.41 224.328C105.131 222.075 102.346 225.267 101.238 227.143C102.188 218.696 99.8137 212.595 92.6915 210.249C85.5695 207.902 80.3466 206.963 74.649 208.84C68.9512 210.718 65.1527 220.573 64.2032 229.959C63.4434 237.468 61.9875 244.664 61.3544 247.324Z" fill="#DDDDDD"/>
<path d="M255.462 287.216L227.071 336.274L242.731 343.062H278.816L303.209 293.884C305.864 288.532 305.79 282.251 303.008 276.963L276.392 226.353C273.406 220.796 267.323 209.007 266.888 206.309C264.956 194.732 263.041 186.939 258.125 180.206C254.193 174.819 248.821 175.47 246.627 176.468C242.192 175.181 239.133 177.779 238.157 179.237C233.963 179.114 231.868 182.425 231.345 184.096L221.571 170.164C220.09 167.938 216.387 164.06 213.429 166.354C210.47 168.647 211.073 171.272 211.745 172.298L221.177 189.026L219.999 198.642C219.567 202.171 220.906 205.98 223.259 208.669C224.237 209.788 225.428 211.171 226.867 212.869C232.217 219.182 236.735 220.825 238.325 220.857L256.839 271.517C258.732 276.697 258.229 282.436 255.462 287.216Z" fill="#DDDDDD"/>
<path d="M223.327 327.791L213.292 343.062H229.912H256.975L223.327 327.791Z" fill="#BBBBBB"/>
<path fill-rule="evenodd" clip-rule="evenodd" d="M240.844 94.3205L216.838 112.375L209.327 99.2394L213.46 96.9301L218.294 105.383L237.969 90.5857L240.844 94.3205Z" fill="#BBBBBB"/>
<path d="M279.729 61.3797C279.225 58.8363 280.902 56.3702 283.476 55.8717L339.506 45.0173C342.079 44.5189 344.573 46.1766 345.078 48.7201L360.837 128.196C361.341 130.739 359.665 133.205 357.091 133.704L301.061 144.558C298.488 145.057 295.993 143.4 295.489 140.856L279.729 61.3797Z" fill="#BBBBBB"/>
<path fill-rule="evenodd" clip-rule="evenodd" d="M337.507 67.6367L294.598 76.1403L294.226 74.2998L337.133 65.7961L337.507 67.6367ZM340.767 83.7052L297.858 92.2089L297.485 90.3683L340.393 81.8646L340.767 83.7052ZM344.026 99.7738L301.118 108.278L300.744 106.437L343.652 97.9332L344.026 99.7738ZM347.221 115.528L304.313 124.031L303.941 122.191L346.848 113.687L347.221 115.528Z" fill="white"/>
<path fill-rule="evenodd" clip-rule="evenodd" d="M-0.370117 343.062C-0.370117 342.543 0.055039 342.123 0.579495 342.123H378.05C378.574 342.123 379 342.543 379 343.062C379 343.58 378.574 344 378.05 344H0.579495C0.055039 344 -0.370117 343.58 -0.370117 343.062Z" fill="#BBBBBB"/>
</g>
</g>
<defs>
<clipPath id="clip0_33_183">
<rect width="379" height="344" fill="white"/>
</clipPath>
</defs>
</svg>
