<svg width="1080" height="1080" viewBox="0 0 1080 1080" fill="none" xmlns="http://www.w3.org/2000/svg">
<rect width="1080" height="1080" fill="black"/>
<path d="M540.5 236.75C570.538 236.75 599.902 245.657 624.877 262.346C649.853 279.034 669.319 302.753 680.814 330.505C692.309 358.256 695.317 388.793 689.457 418.254C683.597 447.715 669.132 474.777 647.892 496.017C626.652 517.257 599.59 531.722 570.129 537.582C540.668 543.442 510.131 540.434 482.38 528.939C454.628 517.444 430.909 497.978 414.221 473.002C397.532 448.026 388.625 418.663 388.625 388.625L388.777 382.034C390.475 342.933 407.203 305.998 435.47 278.931C463.737 251.863 501.363 236.752 540.5 236.75ZM601.25 601.25C641.53 601.25 680.16 617.251 708.642 645.733C737.124 674.215 753.125 712.845 753.125 753.125V783.5C753.125 799.612 746.725 815.064 735.332 826.457C723.939 837.849 708.487 844.25 692.375 844.25H388.625C372.513 844.25 357.061 837.849 345.668 826.457C334.275 815.064 327.875 799.612 327.875 783.5V753.125C327.875 712.845 343.876 674.215 372.358 645.733C400.84 617.251 439.47 601.25 479.75 601.25H601.25Z" fill="url(#paint0_linear_50_3)"/>
<defs>
<linearGradient id="paint0_linear_50_3" x1="540.5" y1="236.75" x2="540.5" y2="844.25" gradientUnits="userSpaceOnUse">
<stop stop-color="#00FFD1"/>
<stop offset="1" stop-color="#0057FF"/>
</linearGradient>
</defs>
</svg>
